<svg width="128" height="128" viewBox="0 0 128 128" fill="none" xmlns="http://www.w3.org/2000/svg">
  <!-- 背景渐变 -->
  <defs>
    <linearGradient id="bgGradient" x1="0%" y1="0%" x2="100%" y2="100%">
      <stop offset="0%" stop-color="#1e293b"/>
      <stop offset="50%" stop-color="#2563eb"/>
      <stop offset="100%" stop-color="#1e40af"/>
    </linearGradient>
    <radialGradient id="glowEffect" cx="50%" cy="50%" r="50%">
      <stop offset="0%" stop-color="#ffffff" stop-opacity="0.1"/>
      <stop offset="100%" stop-color="#ffffff" stop-opacity="0"/>
    </radialGradient>
  </defs>
  
  <!-- 主背景 -->
  <rect width="128" height="128" rx="20" fill="url(#bgGradient)"/>
  <rect x="4" y="4" width="120" height="120" rx="16" fill="url(#glowEffect)"/>
  
  <!-- AI工具图标网格 -->
  <g transform="translate(16, 16)">
    <!-- ChatGPT - 左上 -->
    <g transform="translate(0, 0)">
      <circle cx="24" cy="24" r="20" fill="#10b981" opacity="0.9"/>
      <circle cx="24" cy="24" r="15" fill="#ffffff" opacity="0.15"/>
      <circle cx="24" cy="24" r="10" fill="#ffffff" opacity="0.2"/>
      <!-- ChatGPT logo风格 -->
      <path d="M16 24 Q20 16 28 20 Q32 24 28 28 Q24 32 20 28 Q16 24 16 24" fill="#ffffff" opacity="0.8"/>
      <circle cx="24" cy="24" r="3" fill="#10b981"/>
    </g>
    
    <!-- Claude - 右上 -->
    <g transform="translate(48, 0)">
      <rect x="4" y="4" width="40" height="40" rx="6" fill="#f59e0b" opacity="0.9"/>
      <rect x="8" y="12" width="32" height="4" rx="2" fill="#ffffff" opacity="0.9"/>
      <rect x="8" y="20" width="32" height="4" rx="2" fill="#ffffff" opacity="0.9"/>
      <rect x="8" y="28" width="20" height="4" rx="2" fill="#ffffff" opacity="0.9"/>
      <!-- Claude装饰 -->
      <circle cx="36" cy="30" r="2" fill="#ffffff" opacity="0.7"/>
    </g>
    
    <!-- Gemini - 左下 -->
    <g transform="translate(0, 48)">
      <path d="M24 4 L44 24 L24 44 L4 24 Z" fill="#ef4444" opacity="0.9"/>
      <path d="M24 12 L36 24 L24 36 L12 24 Z" fill="#ffffff" opacity="0.2"/>
      <path d="M24 16 L32 24 L24 32 L16 24 Z" fill="#ffffff" opacity="0.3"/>
      <!-- Gemini星形装饰 -->
      <circle cx="24" cy="24" r="4" fill="#ffffff" opacity="0.8"/>
      <path d="M24 20 L26 22 L24 24 L22 22 Z" fill="#ef4444"/>
      <path d="M24 28 L26 26 L24 24 L22 26 Z" fill="#ef4444"/>
    </g>
    
    <!-- Poe - 右下 -->
    <g transform="translate(48, 48)">
      <circle cx="24" cy="24" r="20" fill="#8b5cf6" opacity="0.9"/>
      <circle cx="24" cy="24" r="15" fill="#ffffff" opacity="0.15"/>
      <!-- Poe特色设计 -->
      <path d="M24 8 L32 16 L24 24 L16 16 Z" fill="#ffffff" opacity="0.8"/>
      <path d="M24 24 L32 32 L24 40 L16 32 Z" fill="#ffffff" opacity="0.6"/>
      <circle cx="24" cy="24" r="3" fill="#8b5cf6"/>
    </g>
    
    <!-- 连接网络 -->
    <g stroke="#ffffff" stroke-width="2" opacity="0.3">
      <path d="M44 24 L52 24"/>
      <path d="M24 44 L24 52"/>
      <path d="M44 44 L52 52"/>
      <path d="M44 52 L52 44"/>
    </g>
    
    <!-- 中心连接点 -->
    <circle cx="48" cy="48" r="4" fill="#ffffff" opacity="0.6"/>
    <circle cx="48" cy="48" r="2" fill="#2563eb"/>
  </g>
  
  <!-- 分组管理标识 -->
  <g transform="translate(96, 96)">
    <rect width="24" height="24" rx="4" fill="#8b5cf6" opacity="0.95"/>
    <rect x="4" y="6" width="16" height="2" rx="1" fill="#ffffff"/>
    <rect x="4" y="10" width="16" height="2" rx="1" fill="#ffffff"/>
    <rect x="4" y="14" width="12" height="2" rx="1" fill="#ffffff"/>
    <!-- 分组图标 -->
    <circle cx="18" cy="18" r="1.5" fill="#ffffff"/>
  </g>
  
  <!-- 装饰性元素 -->
  <g opacity="0.1">
    <circle cx="64" cy="64" r="56" fill="none" stroke="#ffffff" stroke-width="1"/>
    <circle cx="64" cy="64" r="48" fill="none" stroke="#ffffff" stroke-width="0.5"/>
    <circle cx="64" cy="64" r="40" fill="none" stroke="#ffffff" stroke-width="0.5"/>
  </g>
  
  <!-- 光效 -->
  <ellipse cx="32" cy="32" rx="8" ry="4" fill="#ffffff" opacity="0.1" transform="rotate(-45 32 32)"/>
  <ellipse cx="96" cy="32" rx="6" ry="3" fill="#ffffff" opacity="0.08" transform="rotate(45 96 32)"/>
</svg>